<svg width="32" height="32" viewBox="0 0 32 32" fill="none" xmlns="http://www.w3.org/2000/svg">
<path fill-rule="evenodd" clip-rule="evenodd" d="M10.439 3.99992C10.263 3.99978 10.0888 4.03446 9.92634 4.10197C9.76386 4.16948 9.61635 4.26847 9.49232 4.39325L9.48952 4.39607L5.88566 7.99992H26.1144L22.5106 4.39606L22.5078 4.39325C22.3837 4.26847 22.2362 4.16948 22.0737 4.10197C21.9113 4.03446 21.737 3.99978 21.5611 3.99992H10.439ZM28 10.6666H4.00004V13.3333C4.00004 13.6869 4.14052 14.026 4.39056 14.2761C4.63246 14.518 4.95772 14.6573 5.29881 14.6661C5.77521 14.6317 6.22894 14.4477 6.59491 14.1397C6.62 14.1186 6.64585 14.0984 6.67242 14.0792C7.05879 13.8 7.52335 13.6497 8.00004 13.6497C8.47674 13.6497 8.94129 13.8 9.32766 14.0792C9.35423 14.0984 9.38008 14.1186 9.40517 14.1397C9.76228 14.4402 10.203 14.6228 10.6667 14.6634C11.1305 14.6228 11.5711 14.4402 11.9282 14.1397C11.9533 14.1186 11.9792 14.0984 12.0058 14.0792C12.3921 13.8 12.8567 13.6497 13.3334 13.6497C13.8101 13.6497 14.2746 13.8 14.661 14.0792C14.6876 14.0984 14.7134 14.1186 14.7385 14.1397C15.0956 14.4402 15.5363 14.6228 16 14.6634C16.4638 14.6228 16.9045 14.4402 17.2616 14.1397C17.2867 14.1186 17.3125 14.0984 17.3391 14.0792C17.7255 13.8 18.19 13.6497 18.6667 13.6497C19.1434 13.6497 19.608 13.8 19.9943 14.0792C20.0209 14.0984 20.0467 14.1186 20.0718 14.1397C20.4289 14.4402 20.8696 14.6228 21.3334 14.6634C21.7971 14.6228 22.2378 14.4402 22.5949 14.1397C22.62 14.1186 22.6458 14.0984 22.6724 14.0792C23.0588 13.8 23.5233 13.6497 24 13.6497C24.4767 13.6497 24.9413 13.8 25.3277 14.0792C25.3542 14.0984 25.3801 14.1186 25.4052 14.1397C25.7711 14.4477 26.2249 14.6317 26.7013 14.6661C27.0424 14.6573 27.3676 14.518 27.6095 14.2761C27.8596 14.026 28 13.6869 28 13.3333V10.6666ZM25.3334 17.0951C24.859 16.9402 24.4091 16.7136 24 16.4219C23.2414 16.963 22.3424 17.2797 21.4066 17.3312C21.3578 17.3339 21.3089 17.3339 21.2601 17.3312C20.3243 17.2797 19.4254 16.963 18.6667 16.4219C17.908 16.963 17.0091 17.2797 16.0733 17.3312C16.0245 17.3339 15.9756 17.3339 15.9268 17.3312C14.991 17.2797 14.092 16.963 13.3334 16.4219C12.5747 16.963 11.6758 17.2797 10.74 17.3312C10.6912 17.3339 10.6422 17.3339 10.5934 17.3312C9.65763 17.2797 8.7587 16.963 8.00004 16.4219C7.59097 16.7136 7.14113 16.9402 6.66671 17.0951V26.6666C6.66671 27.0202 6.80718 27.3593 7.05723 27.6094C7.30728 27.8594 7.64642 27.9999 8.00004 27.9999H10.6667V23.9999C10.6667 22.9391 11.0881 21.9216 11.8383 21.1715C12.5884 20.4213 13.6058 19.9999 14.6667 19.9999H17.3334C18.3942 19.9999 19.4117 20.4213 20.1618 21.1715C20.9119 21.9216 21.3334 22.9391 21.3334 23.9999V27.9999H24C24.3537 27.9999 24.6928 27.8594 24.9428 27.6094C25.1929 27.3593 25.3334 27.0202 25.3334 26.6666V17.0951ZM18.6667 27.9999V23.9999C18.6667 23.6463 18.5262 23.3072 18.2762 23.0571C18.0261 22.8071 17.687 22.6666 17.3334 22.6666H14.6667C14.3131 22.6666 13.9739 22.8071 13.7239 23.0571C13.4738 23.3072 13.3334 23.6463 13.3334 23.9999V27.9999H18.6667ZM12 30.6666H24C25.0609 30.6666 26.0783 30.2452 26.8285 29.495C27.5786 28.7449 28 27.7275 28 26.6666V17.1045C28.5572 16.9075 29.0693 16.5876 29.4951 16.1617C30.2453 15.4115 30.6667 14.3941 30.6667 13.3333V9.33325C30.6667 8.97963 30.5262 8.64049 30.2762 8.39044L24.399 2.51325C24.3984 2.51266 24.3978 2.51206 24.3972 2.51147C24.0255 2.13797 23.5836 1.84161 23.0969 1.63941C22.6098 1.43702 22.0875 1.33297 21.56 1.33325C21.5599 1.33325 21.5602 1.33325 21.56 1.33325H10.4405M12 30.6666H8.00004C6.93917 30.6666 5.92176 30.2452 5.17161 29.495C4.42147 28.7449 4.00004 27.7275 4.00004 26.6666V17.1045C3.44284 16.9075 2.93082 16.5876 2.50495 16.1617C1.7548 15.4115 1.33337 14.3941 1.33337 13.3333V9.33325C1.33337 8.97963 1.47385 8.64049 1.7239 8.39044L7.6011 2.51325C7.60162 2.51273 7.60215 2.5122 7.60267 2.51167C7.97446 2.13808 8.41642 1.84164 8.90316 1.63941C9.39026 1.43702 9.91308 1.33297 10.4405 1.33325" fill="#2DEBFC"/>
</svg>
